{"title":"Transformers Age of Extinction 2014 CAM x264 AC3 TiTAN","uid":10446909,"size":1491607771,"categoryP":"video","categoryS":"movies","magnet":"?xt=urn:btih:19f5440897b995d35b627a8dea8143caca275db7&amp;dn=Transformers+Age+of+Extinction+2014+CAM+x264+AC3+TiTAN&amp;tr=udp%3A%2F%2Ftracker.openbittorrent.com%3A80&amp;tr=udp%3A%2F%2Fopen.demonii.com%3A1337&amp;tr=udp%3A%2F%2Ftracker.coppersurfer.tk%3A6969&amp;tr=udp%3A%2F%2Fexodus.desync.com%3A6969","seeders":24,"leechers":2,"uploader":"xxxlavalxxx","files":3,"time":1403974350,"description":"[IMG]http://i.imgur.com/Qumtkcm.jpg[/IMG]\n &lt;a href=&quot;\nhttp://www.imdb.com/title/tt2109248/&quot; rel=&quot;nofollow&quot; target=&quot;_NEW&quot;&gt;\nhttp://www.imdb.com/title/tt2109248/&lt;/a&gt;\n\n\nAn automobile mechanic and his daughter make a discovery that brings down the Autobots - and a paranoid government official - on them.\n\nDirector: Michael Bay\nWriter: Ehren Kruger\nStars: Mark Wahlberg, Nicola Peltz, Jack Reynor\nGenres: Action | Adventure | Sci-Fi\nCountry: USA\nLanguage: English\n\n\n\nSource: RBG THX\n\nOK, just did a little cropping, brightening, and color adjustment on this. not a great first cam, but seems to be complete.. if not for people moving in front of camera, would be pretty good.. included screens of both, enjoy or wait for better.\n\nGeneral\n\nFormat                                   : Matroska\nFormat version                           : Version 2\nFile size                                : 1.39 GiB\nDuration                                 : 2h 27mn\nOverall bit rate mode                    : Variable\nOverall bit rate                         : 1 349 Kbps\nEncoded date                             : UTC 2014-06-28 13:17:38\n\n\nVideo\nID                                       : 1\nFormat                                   : AVC\nFormat/Info                              : Advanced Video Codec\nFormat profile                           : &lt;a class=&quot;__cf_email__&quot; href=&quot;/cdn-cgi/l/email-protection&quot; data-cfemail=&quot;97dffef0ffd7dba3b9a6&quot;&gt;[email&amp;#160;protected]&lt;/a&gt;&lt;script cf-hash='f9e31' type=&quot;text/javascript&quot;&gt;\n/* &lt;![CDATA[ */!function(){try{var t=&quot;currentScript&quot;in document?document.currentScript:function(){for(var t=document.getElementsByTagName(&quot;script&quot;),e=t.length;e--;)if(t[e].getAttribute(&quot;cf-hash&quot;))return t[e]}();if(t&amp;&amp;t.previousSibling){var e,r,n,i,c=t.previousSibling,a=c.getAttribute(&quot;data-cfemail&quot;);if(a){for(e=&quot;&quot;,r=parseInt(a.substr(0,2),16),n=2;a.length-n;n+=2)i=parseInt(a.substr(n,2),16)^r,e+=String.fromCharCode(i);e=document.createTextNode(e),c.parentNode.replaceChild(e,c)}}}catch(u){}}();/* ]]&gt; */&lt;/script&gt;\nFormat settings, CABAC                   : Yes\nFormat settings, ReFrames                : 3 frames\nCodec ID                                 : V_MPEG4/ISO/AVC\nDuration                                 : 2h 27mn\nBit rate mode                            : Variable\nBit rate                                 : 1 131 Kbps\nMaximum bit rate                         : 40.0 Mbps\nWidth                                    : 704 pixels\nHeight                                   : 272 pixels\nDisplay aspect ratio                     : 2.588\nFrame rate mode                          : Constant\nFrame rate                               : 29.970 fps\nColor space                              : YUV\nChroma subsampling                       : 4:2:0\nBit depth                                : 8 bits\nScan type                                : Progressive\nBits/(Pixel*Frame)                       : 0.197\nStream size                              : 1.16 GiB (84%)\n\n\nAudio\nID                                       : 2\nFormat                                   : AC-3\nFormat/Info                              : Audio Coding 3\nMode extension                           : CM (complete main)\nFormat settings, Endianness              : Big\nCodec ID                                 : A_AC3\nDuration                                 : 2h 27mn\nBit rate mode                            : Constant\nBit rate                                 : 192 Kbps\nChannel(s)                               : 2 channels\nChannel positions                        : Front: L R\nSampling rate                            : 44.1 KHz\nBit depth                                : 16 bits\nCompression mode                         : Lossy\nStream size                              : 202 MiB (14%)\nLanguage                                 : English\nDefault                                  : Yes\nForced                                   : No\n\n\n\nscreens\n &lt;a href=&quot;\nhttp://i.imgur.com/P8oDVKS.png&quot; rel=&quot;nofollow&quot; target=&quot;_NEW&quot;&gt;\nhttp://i.imgur.com/P8oDVKS.png&lt;/a&gt; &lt;a href=&quot;\nhttp://i.imgur.com/IRedfUE.png&quot; rel=&quot;nofollow&quot; target=&quot;_NEW&quot;&gt;\nhttp://i.imgur.com/IRedfUE.png&lt;/a&gt; &lt;a href=&quot;\nhttp://i.imgur.com/JsGQjDB.png&quot; rel=&quot;nofollow&quot; target=&quot;_NEW&quot;&gt;\nhttp://i.imgur.com/JsGQjDB.png&lt;/a&gt; &lt;a href=&quot;\nhttp://i.imgur.com/4CLduUL.png&quot; rel=&quot;nofollow&quot; target=&quot;_NEW&quot;&gt;\nhttp://i.imgur.com/4CLduUL.png&lt;/a&gt; &lt;a href=&quot;\nhttp://i.imgur.com/C1Akehf.png&quot; rel=&quot;nofollow&quot; target=&quot;_NEW&quot;&gt;\nhttp://i.imgur.com/C1Akehf.png&lt;/a&gt; &lt;a href=&quot;\nhttp://i.imgur.com/tWna6n8.png&quot; rel=&quot;nofollow&quot; target=&quot;_NEW&quot;&gt;\nhttp://i.imgur.com/tWna6n8.png&lt;/a&gt; &lt;a href=&quot;\nhttp://i.imgur.com/3C0uQWW.png&quot; rel=&quot;nofollow&quot; target=&quot;_NEW&quot;&gt;\nhttp://i.imgur.com/3C0uQWW.png&lt;/a&gt; &lt;a href=&quot;\nhttp://i.imgur.com/HDsGCYm.png&quot; rel=&quot;nofollow&quot; target=&quot;_NEW&quot;&gt;\nhttp://i.imgur.com/HDsGCYm.png&lt;/a&gt;\n","torrent":{"xt":"urn:btih:19f5440897b995d35b627a8dea8143caca275db7","amp;dn":"Transformers+Age+of+Extinction+2014+CAM+x264+AC3+TiTAN","amp;tr":["udp%3A%2F%2Ftracker.openbittorrent.com%3A80","udp%3A%2F%2Fopen.demonii.com%3A1337","udp%3A%2F%2Ftracker.coppersurfer.tk%3A6969","udp%3A%2F%2Fexodus.desync.com%3A6969"],"infoHash":"19f5440897b995d35b627a8dea8143caca275db7","infoHashBuffer":{"type":"Buffer","data":[25,245,68,8,151,185,149,211,91,98,122,141,234,129,67,202,202,39,93,183]},"announce":[],"urlList":[]}}